# xmcd
#
# Track frame offsets: 
#        150
#        13753
#        25930
#        36355
#        49091
#        67537
#        79296
#        89767
#        103132
#        118506
#        134105
#        147995
#        163125
#        177122
#        193793
#        211398
#        229607
#        241591
#        250049
#        261903
#        274089
#        286244
#        297626
#        310779
#        324119
#
# Disc length: 4486 seconds
#
# Revision: 0
# Processed by: cddbd v1.5.2PL0 Copyright (c) Steve Scherf et al.
# Submitted via: ExactAudioCopy v1.0b3
#
DISCID=6f118419
DTITLE=Greenhorns - Zlatá éra 1975 - 1991 [CD 3)
DYEAR=2010
DGENRE=Country
TTITLE0=Černý diamant
TTITLE1=Medomlsnej Dan
TTITLE2=Pár tónů
TTITLE3=Neklaunova zpověď
TTITLE4=Marion Lee
TTITLE5=Pořád cestuju sám
TTITLE6=Dům v pastvinách
TTITLE7=Zálesácká bowle
TTITLE8=Sedm španělských andělů
TTITLE9=Kocour prospektor
TTITLE10=Pracoval jsem na trati
TTITLE11=Jenom dým
TTITLE12=Zelení mužíci
TTITLE13=Kamarádi 2
TTITLE14=Battledress
TTITLE15=Podzim hlásí příchod
TTITLE16=Ranní vlak
TTITLE17=Nebij ženu v neděli
TTITLE18=Carmen
TTITLE19=To tenkrat v čtyřicátom pátom
TTITLE20=Hats off to Patton
TTITLE21=Začni hrát
TTITLE22=Veterán
TTITLE23=Už slyším nebeský jezdce zas klít
TTITLE24=Pomerančový expres
EXTD=
EXTT0=
EXTT1=
EXTT2=
EXTT3=
EXTT4=
EXTT5=
EXTT6=
EXTT7=
EXTT8=
EXTT9=
EXTT10=
EXTT11=
EXTT12=
EXTT13=
EXTT14=
EXTT15=
EXTT16=
EXTT17=
EXTT18=
EXTT19=
EXTT20=
EXTT21=
EXTT22=
EXTT23=
EXTT24=
PLAYORDER=
